<svg width="83" height="15" viewBox="0 0 83 15" fill="none" xmlns="http://www.w3.org/2000/svg">
<rect width="83" height="15" fill="white"/>
<path d="M42.915 0.499999V11H44.835V0.499999H42.915ZM47.55 10.895C47.91 11.075 48.285 11.15 48.705 11.15C49.275 11.15 49.755 11.045 50.145 10.835C50.52 10.625 50.82 10.325 51.06 9.905V11H52.815V6.62C52.815 5.69 52.53 4.985 51.99 4.49C51.435 3.995 50.625 3.74 49.545 3.74C48.675 3.74 47.97 3.95 47.43 4.34C46.875 4.745 46.5 5.285 46.32 5.975L47.985 6.425C48.06 6.065 48.225 5.78 48.495 5.57C48.75 5.36 49.095 5.24 49.53 5.24C49.965 5.24 50.31 5.36 50.58 5.585C50.85 5.81 50.985 6.125 50.985 6.515V6.965L50.355 6.815C49.965 6.725 49.56 6.665 49.14 6.665C48.3 6.665 47.625 6.86 47.115 7.235C46.605 7.625 46.365 8.195 46.365 8.945C46.365 9.395 46.47 9.8 46.695 10.13C46.905 10.46 47.19 10.715 47.55 10.895ZM50.55 9.335C50.265 9.575 49.905 9.68 49.47 9.68C49.08 9.68 48.795 9.605 48.6 9.455C48.405 9.305 48.315 9.095 48.315 8.825C48.315 8.555 48.405 8.345 48.615 8.195C48.81 8.045 49.08 7.97 49.44 7.97C49.725 7.97 50.1 8.045 50.55 8.18L50.985 8.315V8.375C50.985 8.795 50.835 9.11 50.55 9.335ZM55.8334 13.58C56.4034 13.94 57.1234 14.12 57.9934 14.12C59.1934 14.12 60.0934 13.79 60.7234 13.1C61.3534 12.425 61.6684 11.51 61.6684 10.355V3.89H59.7634V4.73C59.2984 4.07 58.5784 3.74 57.6184 3.74C57.0034 3.74 56.4334 3.89 55.9234 4.19C55.4134 4.49 54.9934 4.925 54.6934 5.48C54.3934 6.05 54.2434 6.695 54.2434 7.43C54.2434 8.12 54.3784 8.735 54.6634 9.275C54.9484 9.815 55.3384 10.22 55.8334 10.52C56.3134 10.82 56.8684 10.955 57.4834 10.955C58.5634 10.955 59.3284 10.58 59.7634 9.83V10.505C59.7634 11.135 59.6134 11.63 59.3284 11.99C59.0434 12.35 58.6084 12.515 58.0384 12.515C57.5884 12.515 57.2284 12.41 56.9284 12.185C56.6284 11.96 56.4184 11.645 56.3134 11.225L54.6184 11.975C54.8584 12.695 55.2634 13.22 55.8334 13.58ZM59.2984 8.795C58.9534 9.17 58.5184 9.35 58.0084 9.35C57.4684 9.35 57.0334 9.185 56.6884 8.84C56.3284 8.495 56.1634 8.03 56.1634 7.43C56.1634 6.8 56.3284 6.305 56.6734 5.945C57.0184 5.585 57.4534 5.39 57.9784 5.39C58.5034 5.39 58.9384 5.585 59.2984 5.945C59.6434 6.305 59.8234 6.785 59.8234 7.385C59.8234 7.955 59.6434 8.435 59.2984 8.795ZM70.2461 3.89H68.3411V7.55C68.3411 8.15 68.1911 8.63 67.9061 8.975C67.6211 9.335 67.2311 9.5 66.7211 9.5C66.3011 9.5 65.9711 9.365 65.7461 9.095C65.5211 8.825 65.4161 8.435 65.4161 7.925V3.89H63.4961V8.405C63.4961 9.305 63.7361 9.995 64.2311 10.46C64.7111 10.925 65.3711 11.15 66.1811 11.15C66.6761 11.15 67.1111 11.045 67.4861 10.835C67.8611 10.625 68.1461 10.325 68.3411 9.95V11H70.2461V3.89ZM77.12 8.285C76.88 9.095 76.34 9.5 75.47 9.5C74.96 9.5 74.51 9.365 74.15 9.065C73.79 8.765 73.595 8.345 73.595 7.805H78.425C78.485 7.535 78.515 7.25 78.515 6.935C78.515 6.29 78.365 5.72 78.095 5.24C77.825 4.76 77.435 4.4 76.94 4.13C76.43 3.875 75.86 3.74 75.215 3.74C74.525 3.74 73.91 3.905 73.37 4.235C72.83 4.565 72.41 5 72.11 5.555C71.81 6.125 71.675 6.74 71.675 7.4C71.675 8.15 71.825 8.81 72.155 9.38C72.47 9.95 72.92 10.385 73.49 10.685C74.06 11 74.705 11.15 75.44 11.15C76.265 11.15 76.955 10.955 77.525 10.565C78.095 10.175 78.5 9.62 78.755 8.93L77.12 8.285ZM74.18 5.615C74.48 5.405 74.825 5.285 75.215 5.285C75.635 5.285 75.98 5.405 76.25 5.615C76.52 5.825 76.655 6.11 76.655 6.47L76.64 6.53H73.595C73.685 6.14 73.88 5.84 74.18 5.615Z" fill="black"/>
<path d="M36.444 4.292C36.852 4.064 37.296 3.944 37.8 3.944C38.448 3.944 38.976 4.136 39.396 4.496C39.816 4.856 40.092 5.348 40.212 5.948L41.7 5.288C41.568 4.772 41.34 4.304 41.016 3.872C40.68 3.452 40.248 3.116 39.708 2.864C39.156 2.612 38.532 2.48 37.812 2.48C36.996 2.48 36.252 2.672 35.592 3.044C34.932 3.428 34.416 3.944 34.044 4.604C33.66 5.264 33.48 5.996 33.48 6.8C33.48 7.628 33.648 8.372 34.008 9.02C34.368 9.668 34.872 10.184 35.52 10.556C36.168 10.94 36.936 11.12 37.812 11.12C38.952 11.12 39.9 10.82 40.644 10.208C41.388 9.596 41.868 8.78 42.108 7.76L40.632 7.172C40.488 7.904 40.188 8.504 39.72 8.96C39.24 9.416 38.616 9.644 37.824 9.644C37.32 9.644 36.864 9.536 36.456 9.308C36.048 9.08 35.724 8.756 35.484 8.324C35.244 7.892 35.136 7.388 35.136 6.8C35.136 6.224 35.244 5.72 35.484 5.288C35.724 4.856 36.036 4.532 36.444 4.292Z" fill="black"/>
<path d="M6.436 2.6H4.816V11H11.32V9.5H6.436V2.6Z" fill="black"/>
<path d="M18.665 3.89H16.76V7.55C16.76 8.15 16.61 8.63 16.325 8.975C16.04 9.335 15.65 9.5 15.14 9.5C14.72 9.5 14.39 9.365 14.165 9.095C13.94 8.825 13.835 8.435 13.835 7.925V3.89H11.915V8.405C11.915 9.305 12.155 9.995 12.65 10.46C13.13 10.925 13.79 11.15 14.6 11.15C15.095 11.15 15.53 11.045 15.905 10.835C16.28 10.625 16.565 10.325 16.76 9.95V11H18.665V3.89ZM22.419 3.89H20.499V11H22.419V3.89ZM20.439 0.8V2.825H22.494V0.8H20.439ZM24.909 10.655C25.449 10.985 26.124 11.15 26.949 11.15C27.519 11.15 28.029 11.06 28.479 10.865C28.929 10.67 29.289 10.4 29.559 10.04C29.814 9.695 29.949 9.305 29.949 8.855C29.949 8.225 29.754 7.73 29.364 7.37C28.974 7.01 28.314 6.77 27.414 6.62C26.814 6.53 26.394 6.44 26.169 6.32C25.944 6.215 25.839 6.05 25.839 5.84C25.839 5.66 25.929 5.525 26.124 5.405C26.304 5.285 26.544 5.225 26.844 5.225C27.129 5.225 27.384 5.3 27.594 5.435C27.804 5.57 27.954 5.765 28.044 6.035L29.499 5.24C29.274 4.775 28.959 4.415 28.539 4.145C28.119 3.875 27.534 3.74 26.799 3.74C26.319 3.74 25.869 3.83 25.449 4.01C25.029 4.19 24.699 4.43 24.459 4.745C24.204 5.06 24.084 5.42 24.084 5.825C24.084 6.425 24.294 6.905 24.714 7.25C25.134 7.61 25.734 7.835 26.514 7.955C27.144 8.045 27.579 8.165 27.819 8.3C28.044 8.45 28.164 8.645 28.164 8.885C28.164 9.095 28.059 9.26 27.864 9.38C27.654 9.515 27.369 9.575 27.009 9.575C26.139 9.575 25.554 9.2 25.224 8.45L23.724 9.245C23.964 9.86 24.369 10.325 24.909 10.655Z" fill="black"/>
</svg>
