<svg width="83" height="17" viewBox="0 0 83 17" fill="none" xmlns="http://www.w3.org/2000/svg">
<rect width="83" height="17" fill="white"/>
<path d="M42.915 2.5V13H44.835V2.5H42.915ZM47.55 12.895C47.91 13.075 48.285 13.15 48.705 13.15C49.275 13.15 49.755 13.045 50.145 12.835C50.52 12.625 50.82 12.325 51.06 11.905V13H52.815V8.62C52.815 7.69 52.53 6.985 51.99 6.49C51.435 5.995 50.625 5.74 49.545 5.74C48.675 5.74 47.97 5.95 47.43 6.34C46.875 6.745 46.5 7.285 46.32 7.975L47.985 8.425C48.06 8.065 48.225 7.78 48.495 7.57C48.75 7.36 49.095 7.24 49.53 7.24C49.965 7.24 50.31 7.36 50.58 7.585C50.85 7.81 50.985 8.125 50.985 8.515V8.965L50.355 8.815C49.965 8.725 49.56 8.665 49.14 8.665C48.3 8.665 47.625 8.86 47.115 9.235C46.605 9.625 46.365 10.195 46.365 10.945C46.365 11.395 46.47 11.8 46.695 12.13C46.905 12.46 47.19 12.715 47.55 12.895ZM50.55 11.335C50.265 11.575 49.905 11.68 49.47 11.68C49.08 11.68 48.795 11.605 48.6 11.455C48.405 11.305 48.315 11.095 48.315 10.825C48.315 10.555 48.405 10.345 48.615 10.195C48.81 10.045 49.08 9.97 49.44 9.97C49.725 9.97 50.1 10.045 50.55 10.18L50.985 10.315V10.375C50.985 10.795 50.835 11.11 50.55 11.335ZM55.8334 15.58C56.4034 15.94 57.1234 16.12 57.9934 16.12C59.1934 16.12 60.0934 15.79 60.7234 15.1C61.3534 14.425 61.6684 13.51 61.6684 12.355V5.89H59.7634V6.73C59.2984 6.07 58.5784 5.74 57.6184 5.74C57.0034 5.74 56.4334 5.89 55.9234 6.19C55.4134 6.49 54.9934 6.925 54.6934 7.48C54.3934 8.05 54.2434 8.695 54.2434 9.43C54.2434 10.12 54.3784 10.735 54.6634 11.275C54.9484 11.815 55.3384 12.22 55.8334 12.52C56.3134 12.82 56.8684 12.955 57.4834 12.955C58.5634 12.955 59.3284 12.58 59.7634 11.83V12.505C59.7634 13.135 59.6134 13.63 59.3284 13.99C59.0434 14.35 58.6084 14.515 58.0384 14.515C57.5884 14.515 57.2284 14.41 56.9284 14.185C56.6284 13.96 56.4184 13.645 56.3134 13.225L54.6184 13.975C54.8584 14.695 55.2634 15.22 55.8334 15.58ZM59.2984 10.795C58.9534 11.17 58.5184 11.35 58.0084 11.35C57.4684 11.35 57.0334 11.185 56.6884 10.84C56.3284 10.495 56.1634 10.03 56.1634 9.43C56.1634 8.8 56.3284 8.305 56.6734 7.945C57.0184 7.585 57.4534 7.39 57.9784 7.39C58.5034 7.39 58.9384 7.585 59.2984 7.945C59.6434 8.305 59.8234 8.785 59.8234 9.385C59.8234 9.955 59.6434 10.435 59.2984 10.795ZM70.2461 5.89H68.3411V9.55C68.3411 10.15 68.1911 10.63 67.9061 10.975C67.6211 11.335 67.2311 11.5 66.7211 11.5C66.3011 11.5 65.9711 11.365 65.7461 11.095C65.5211 10.825 65.4161 10.435 65.4161 9.925V5.89H63.4961V10.405C63.4961 11.305 63.7361 11.995 64.2311 12.46C64.7111 12.925 65.3711 13.15 66.1811 13.15C66.6761 13.15 67.1111 13.045 67.4861 12.835C67.8611 12.625 68.1461 12.325 68.3411 11.95V13H70.2461V5.89ZM77.12 10.285C76.88 11.095 76.34 11.5 75.47 11.5C74.96 11.5 74.51 11.365 74.15 11.065C73.79 10.765 73.595 10.345 73.595 9.805H78.425C78.485 9.535 78.515 9.25 78.515 8.935C78.515 8.29 78.365 7.72 78.095 7.24C77.825 6.76 77.435 6.4 76.94 6.13C76.43 5.875 75.86 5.74 75.215 5.74C74.525 5.74 73.91 5.905 73.37 6.235C72.83 6.565 72.41 7 72.11 7.555C71.81 8.125 71.675 8.74 71.675 9.4C71.675 10.15 71.825 10.81 72.155 11.38C72.47 11.95 72.92 12.385 73.49 12.685C74.06 13 74.705 13.15 75.44 13.15C76.265 13.15 76.955 12.955 77.525 12.565C78.095 12.175 78.5 11.62 78.755 10.93L77.12 10.285ZM74.18 7.615C74.48 7.405 74.825 7.285 75.215 7.285C75.635 7.285 75.98 7.405 76.25 7.615C76.52 7.825 76.655 8.11 76.655 8.47L76.64 8.53H73.595C73.685 8.14 73.88 7.84 74.18 7.615Z" fill="black"/>
<path d="M36.444 6.292C36.852 6.064 37.296 5.944 37.8 5.944C38.448 5.944 38.976 6.136 39.396 6.496C39.816 6.856 40.092 7.348 40.212 7.948L41.7 7.288C41.568 6.772 41.34 6.304 41.016 5.872C40.68 5.452 40.248 5.116 39.708 4.864C39.156 4.612 38.532 4.48 37.812 4.48C36.996 4.48 36.252 4.672 35.592 5.044C34.932 5.428 34.416 5.944 34.044 6.604C33.66 7.264 33.48 7.996 33.48 8.8C33.48 9.628 33.648 10.372 34.008 11.02C34.368 11.668 34.872 12.184 35.52 12.556C36.168 12.94 36.936 13.12 37.812 13.12C38.952 13.12 39.9 12.82 40.644 12.208C41.388 11.596 41.868 10.78 42.108 9.76L40.632 9.172C40.488 9.904 40.188 10.504 39.72 10.96C39.24 11.416 38.616 11.644 37.824 11.644C37.32 11.644 36.864 11.536 36.456 11.308C36.048 11.08 35.724 10.756 35.484 10.324C35.244 9.892 35.136 9.388 35.136 8.8C35.136 8.224 35.244 7.72 35.484 7.288C35.724 6.856 36.036 6.532 36.444 6.292Z" fill="black"/>
<path d="M6.436 4.6H4.816V13H11.32V11.5H6.436V4.6Z" fill="black"/>
<path d="M18.665 5.89H16.76V9.55C16.76 10.15 16.61 10.63 16.325 10.975C16.04 11.335 15.65 11.5 15.14 11.5C14.72 11.5 14.39 11.365 14.165 11.095C13.94 10.825 13.835 10.435 13.835 9.925V5.89H11.915V10.405C11.915 11.305 12.155 11.995 12.65 12.46C13.13 12.925 13.79 13.15 14.6 13.15C15.095 13.15 15.53 13.045 15.905 12.835C16.28 12.625 16.565 12.325 16.76 11.95V13H18.665V5.89ZM22.419 5.89H20.499V13H22.419V5.89ZM20.439 2.8V4.825H22.494V2.8H20.439ZM24.909 12.655C25.449 12.985 26.124 13.15 26.949 13.15C27.519 13.15 28.029 13.06 28.479 12.865C28.929 12.67 29.289 12.4 29.559 12.04C29.814 11.695 29.949 11.305 29.949 10.855C29.949 10.225 29.754 9.73 29.364 9.37C28.974 9.01 28.314 8.77 27.414 8.62C26.814 8.53 26.394 8.44 26.169 8.32C25.944 8.215 25.839 8.05 25.839 7.84C25.839 7.66 25.929 7.525 26.124 7.405C26.304 7.285 26.544 7.225 26.844 7.225C27.129 7.225 27.384 7.3 27.594 7.435C27.804 7.57 27.954 7.765 28.044 8.035L29.499 7.24C29.274 6.775 28.959 6.415 28.539 6.145C28.119 5.875 27.534 5.74 26.799 5.74C26.319 5.74 25.869 5.83 25.449 6.01C25.029 6.19 24.699 6.43 24.459 6.745C24.204 7.06 24.084 7.42 24.084 7.825C24.084 8.425 24.294 8.905 24.714 9.25C25.134 9.61 25.734 9.835 26.514 9.955C27.144 10.045 27.579 10.165 27.819 10.3C28.044 10.45 28.164 10.645 28.164 10.885C28.164 11.095 28.059 11.26 27.864 11.38C27.654 11.515 27.369 11.575 27.009 11.575C26.139 11.575 25.554 11.2 25.224 10.45L23.724 11.245C23.964 11.86 24.369 12.325 24.909 12.655Z" fill="black"/>
</svg>
