<svg width="60" height="60" viewBox="0 0 60 60" fill="none" xmlns="http://www.w3.org/2000/svg">
<rect x="0.5" y="0.5" width="59" height="59" fill="#FF90E8" stroke="black"/>
<path d="M8.12 15H2.72V43H24.4V38H8.12V15Z" fill="black"/>
<path d="M37.628 19.404C39.124 18.568 40.752 18.128 42.6 18.128C44.976 18.128 46.912 18.832 48.452 20.152C49.992 21.472 51.004 23.276 51.444 25.476L56.9 23.056C56.416 21.164 55.58 19.448 54.392 17.864C53.16 16.324 51.576 15.092 49.596 14.168C47.572 13.244 45.284 12.76 42.644 12.76C39.652 12.76 36.924 13.464 34.504 14.828C32.084 16.236 30.192 18.128 28.828 20.548C27.42 22.968 26.76 25.652 26.76 28.6C26.76 31.636 27.376 34.364 28.696 36.74C30.016 39.116 31.864 41.008 34.24 42.372C36.616 43.78 39.432 44.44 42.644 44.44C46.824 44.44 50.3 43.34 53.028 41.096C55.756 38.852 57.516 35.86 58.396 32.12L52.984 29.964C52.456 32.648 51.356 34.848 49.64 36.52C47.88 38.192 45.592 39.028 42.688 39.028C40.84 39.028 39.168 38.632 37.672 37.796C36.176 36.96 34.988 35.772 34.108 34.188C33.228 32.604 32.832 30.756 32.832 28.6C32.832 26.488 33.228 24.64 34.108 23.056C34.988 21.472 36.132 20.284 37.628 19.404Z" fill="black"/>
</svg>
